<svg width="30" height="30" viewBox="0 0 30 30" fill="none" xmlns="http://www.w3.org/2000/svg">
<path d="M29.5161 13.5484H17.9032C17.7749 13.5484 17.6518 13.5994 17.5611 13.6901C17.4703 13.7809 17.4194 13.9039 17.4194 14.0323V15.779C16.536 15.2709 15.5352 15.0024 14.5161 15H13.0645V14.0323C14.0174 13.3246 14.677 12.2913 14.9177 11.129H15C15.3701 11.127 15.7319 11.0188 16.0425 10.8173C16.353 10.6159 16.5993 10.3296 16.752 9.99248C16.9048 9.65533 16.9577 9.28145 16.9045 8.91515C16.8512 8.54885 16.6941 8.2055 16.4516 7.92581V6.29032C16.4516 4.62203 15.7889 3.02206 14.6092 1.84239C13.4296 0.662728 11.8296 0 10.1613 0C8.49299 0 6.89302 0.662728 5.71336 1.84239C4.5337 3.02206 3.87097 4.62203 3.87097 6.29032V7.92581C3.62851 8.2055 3.47135 8.54885 3.4181 8.91515C3.36485 9.28145 3.41775 9.65533 3.57054 9.99248C3.72332 10.3296 3.96958 10.6159 4.28012 10.8173C4.59065 11.0188 4.95244 11.127 5.32258 11.129H5.41935C5.65639 12.2892 6.31058 13.3221 7.25806 14.0323V15H5.80645C4.26648 15 2.78959 15.6117 1.70067 16.7007C0.611749 17.7896 0 19.2665 0 20.8065V29.5161C0 29.6445 0.0509791 29.7675 0.141723 29.8583C0.232466 29.949 0.35554 30 0.483871 30H16.4516V29.0323H12.5081L11.129 20.8839L11.7145 19.7129L12.8274 20.2694C12.9006 20.307 12.9822 20.3253 13.0645 20.3226C13.166 20.3228 13.2649 20.2912 13.3474 20.2322C13.4299 20.1731 13.4917 20.0897 13.5242 19.9935L14.8597 15.9677C15.7882 16.0373 16.677 16.3733 17.4194 16.9355V29.5161C17.4194 29.6445 17.4703 29.7675 17.5611 29.8583C17.6518 29.949 17.7749 30 17.9032 30H29.5161C29.6445 30 29.7675 29.949 29.8583 29.8583C29.949 29.7675 30 29.6445 30 29.5161V14.0323C30 13.9039 29.949 13.7809 29.8583 13.6901C29.7675 13.5994 29.6445 13.5484 29.5161 13.5484ZM15 10.1613V8.22581C15.2567 8.22581 15.5028 8.32776 15.6843 8.50925C15.8658 8.69074 15.9677 8.93689 15.9677 9.19355C15.9677 9.45021 15.8658 9.69636 15.6843 9.87784C15.5028 10.0593 15.2567 10.1613 15 10.1613ZM4.35484 9.19355C4.35484 8.93689 4.4568 8.69074 4.63828 8.50925C4.81977 8.32776 5.06592 8.22581 5.32258 8.22581V10.1613C5.06592 10.1613 4.81977 10.0593 4.63828 9.87784C4.4568 9.69636 4.35484 9.45021 4.35484 9.19355ZM5.32258 7.25806C5.15911 7.26057 4.99658 7.28333 4.83871 7.32581V6.29032C4.83871 4.87869 5.39948 3.52487 6.39766 2.52669C7.39583 1.52851 8.74965 0.967742 10.1613 0.967742C11.5729 0.967742 12.9267 1.52851 13.9249 2.52669C14.9231 3.52487 15.4839 4.87869 15.4839 6.29032V7.32581C15.326 7.28333 15.1635 7.26057 15 7.25806C15 7.12973 14.949 7.00666 14.8583 6.91592C14.7675 6.82517 14.6445 6.77419 14.5161 6.77419C14.1405 6.77419 13.7701 6.68675 13.4342 6.51877C13.0982 6.3508 12.806 6.10693 12.5806 5.80645L12 5.03226C11.9549 4.97216 11.8965 4.92339 11.8293 4.88979C11.7621 4.8562 11.688 4.83871 11.6129 4.83871C11.5378 4.83871 11.4637 4.8562 11.3965 4.88979C11.3293 4.92339 11.2709 4.97216 11.2258 5.03226L10.6452 5.80645C10.4198 6.10693 10.1276 6.3508 9.79165 6.51877C9.45571 6.68675 9.08527 6.77419 8.70968 6.77419H5.80645C5.67812 6.77419 5.55505 6.82517 5.4643 6.91592C5.37356 7.00666 5.32258 7.12973 5.32258 7.25806ZM6.29032 10.1613V7.74194H8.70968C9.23551 7.74194 9.75412 7.61951 10.2244 7.38435C10.6947 7.14919 11.1039 6.80776 11.4194 6.3871L11.6129 6.13064L11.8065 6.3871C12.3464 7.10232 13.1458 7.57674 14.0323 7.70806V10.1613C14.0323 11.1879 13.6244 12.1725 12.8985 12.8985C12.1725 13.6244 11.1879 14.0323 10.1613 14.0323C9.13465 14.0323 8.15005 13.6244 7.4241 12.8985C6.69815 12.1725 6.29032 11.1879 6.29032 10.1613ZM10.1613 15C10.8277 15.0003 11.4868 14.8619 12.0968 14.5935V15.3097L10.1613 17.6323L8.22581 15.3097V14.5935C8.83576 14.8619 9.49491 15.0003 10.1613 15ZM7.53871 19.1565L6.47903 15.9677H7.51452L9.39677 18.2274L7.53871 19.1565ZM0.967742 20.8065C0.964648 19.5805 1.42702 18.3991 2.26142 17.5009C3.09582 16.6027 4.24005 16.0548 5.4629 15.9677L6.79839 19.9742C6.82747 20.0739 6.88786 20.1616 6.97064 20.2244C7.05342 20.2871 7.1542 20.3215 7.25806 20.3226C7.33381 20.3221 7.40839 20.3039 7.47581 20.2694L8.58871 19.7129L9.19355 20.8839L7.81452 29.0323H3.87097V22.2581H2.90323V29.0323H0.967742V20.8065ZM8.79677 29.0323L10.0887 21.2903H10.2339L11.5258 29.0323H8.79677ZM10.3452 20.3226H9.97742L9.45484 19.2823L10.1613 18.929L10.8677 19.2823L10.3452 20.3226ZM12.7645 19.1565L10.9065 18.2274L12.8081 15.9677H13.8435L12.7645 19.1565ZM21.2903 14.5161H26.129V15.4839H21.2903V14.5161ZM29.0323 29.0323H18.3871V14.5161H20.3226V15.9677C20.3226 16.0961 20.3736 16.2191 20.4643 16.3099C20.555 16.4006 20.6781 16.4516 20.8065 16.4516H26.6129C26.7412 16.4516 26.8643 16.4006 26.9551 16.3099C27.0458 16.2191 27.0968 16.0961 27.0968 15.9677V14.5161H29.0323V29.0323Z" fill="white"/>
<path d="M21.7738 17.4194H19.8384C19.71 17.4194 19.587 17.4704 19.4962 17.5612C19.4055 17.6519 19.3545 17.775 19.3545 17.9033V19.8388C19.3545 19.9671 19.4055 20.0902 19.4962 20.1809C19.587 20.2717 19.71 20.3227 19.8384 20.3227H21.7738C21.9022 20.3227 22.0253 20.2717 22.116 20.1809C22.2067 20.0902 22.2577 19.9671 22.2577 19.8388V17.9033C22.2577 17.775 22.2067 17.6519 22.116 17.5612C22.0253 17.4704 21.9022 17.4194 21.7738 17.4194ZM21.29 19.3549H20.3222V18.3872H21.29V19.3549Z" fill="white"/>
<path d="M21.7738 21.29H19.8384C19.71 21.29 19.587 21.341 19.4962 21.4318C19.4055 21.5225 19.3545 21.6456 19.3545 21.7739V23.7094C19.3545 23.8377 19.4055 23.9608 19.4962 24.0515C19.587 24.1423 19.71 24.1933 19.8384 24.1933H21.7738C21.9022 24.1933 22.0253 24.1423 22.116 24.0515C22.2067 23.9608 22.2577 23.8377 22.2577 23.7094V21.7739C22.2577 21.6456 22.2067 21.5225 22.116 21.4318C22.0253 21.341 21.9022 21.29 21.7738 21.29ZM21.29 23.2255H20.3222V22.2578H21.29V23.2255Z" fill="white"/>
<path d="M21.7738 25.1611H19.8384C19.71 25.1611 19.587 25.2121 19.4962 25.3029C19.4055 25.3936 19.3545 25.5167 19.3545 25.645V27.5805C19.3545 27.7088 19.4055 27.8319 19.4962 27.9226C19.587 28.0134 19.71 28.0644 19.8384 28.0644H21.7738C21.9022 28.0644 22.0253 28.0134 22.116 27.9226C22.2067 27.8319 22.2577 27.7088 22.2577 27.5805V25.645C22.2577 25.5167 22.2067 25.3936 22.116 25.3029C22.0253 25.2121 21.9022 25.1611 21.7738 25.1611ZM21.29 27.0966H20.3222V26.1289H21.29V27.0966Z" fill="white"/>
<path d="M23.2258 17.4194H28.0645V18.3872H23.2258V17.4194Z" fill="white"/>
<path d="M23.2258 19.355H28.0645V20.3227H23.2258V19.355Z" fill="white"/>
<path d="M23.2258 21.2905H28.0645V22.2583H23.2258V21.2905Z" fill="white"/>
<path d="M23.2258 23.2256H28.0645V24.1933H23.2258V23.2256Z" fill="white"/>
<path d="M23.2258 25.1611H28.0645V26.1289H23.2258V25.1611Z" fill="white"/>
<path d="M23.2258 27.0967H28.0645V28.0644H23.2258V27.0967Z" fill="white"/>
</svg>
