<svg width="30" height="30" viewBox="0 0 30 30" fill="none" xmlns="http://www.w3.org/2000/svg">
<g clip-path="url(#clip0_1_3923)">
<path d="M15 13.5C13.3457 13.5 12 14.8457 12 16.5C12 18.1543 13.3457 19.5 15 19.5C16.6543 19.5 18 18.1543 18 16.5C18 14.8457 16.6543 13.5 15 13.5ZM15 18.5C13.8972 18.5 13 17.603 13 16.5C13 15.397 13.8972 14.5 15 14.5C16.1028 14.5 17 15.397 17 16.5C17 17.603 16.1028 18.5 15 18.5Z" fill="white"/>
<path d="M15 0C6.729 0 0 6.729 0 15C0 23.271 6.729 30 15 30C23.271 30 30 23.271 30 15C30 6.729 23.271 0 15 0ZM15 29C7.28025 29 1 22.7197 1 15C1 7.28025 7.28025 1 15 1C22.7197 1 29 7.28025 29 15C29 22.7197 22.7197 29 15 29Z" fill="white"/>
<path d="M15 3C8.38331 3 3 8.38331 3 15C3 21.6167 8.38331 27 15 27C21.6167 27 27 21.6167 27 15C27 8.38331 21.6167 3 15 3ZM15 4C19.6741 4 23.6738 6.93156 25.2642 11.0516L21.5181 12.3003C20.2332 12.7285 18.8441 12.6616 17.6055 12.1108C15.9497 11.3745 14.0501 11.3745 12.3948 12.1108L12.2054 12.1948C11.0794 12.6958 9.80281 12.7969 8.61088 12.479L4.6045 11.4106C6.09625 7.10288 10.1913 4 15 4ZM4 15C4 14.8981 4.00494 14.7974 4.00775 14.6962L4.355 14.812C9.28475 16.4552 12.7711 20.7622 13.3912 25.8812C8.08581 25.1002 4 20.5189 4 15ZM15 26C14.8014 26 14.6042 25.9941 14.4082 25.9836C13.8174 20.3835 10.0411 15.6534 4.67137 13.8638L4.0835 13.6678C4.13706 13.2266 4.21588 12.7931 4.32025 12.3694L8.353 13.4449C8.8935 13.5889 9.44844 13.6607 10.0029 13.6607C10.8964 13.6607 11.7878 13.4751 12.6112 13.1089L12.8007 13.0249C14.1981 12.4029 15.8012 12.4034 17.2006 13.0254C18.6666 13.6763 20.3121 13.7564 21.8344 13.2486L25.5806 11.9998C25.7341 12.5402 25.8471 13.0972 25.9164 13.6678L25.3285 13.8638C19.9587 15.6534 16.1825 20.3835 15.5916 25.9836C15.3958 25.9941 15.1986 26 15 26ZM16.6089 25.8812C17.229 20.7622 20.7153 16.4552 25.6451 14.812L25.9923 14.6962C25.9951 14.7974 26.0001 14.8981 26.0001 15C26 20.5189 21.9142 25.1002 16.6089 25.8812Z" fill="white"/>
</g>
<defs>
<clipPath id="clip0_1_3923">
<rect width="30" height="30" fill="white"/>
</clipPath>
</defs>
</svg>
