<svg width="36" height="36" viewBox="0 0 36 36" fill="none" xmlns="http://www.w3.org/2000/svg">
<path d="M33.75 8.4375H29.8125V2.25C29.8125 1.9395 29.5605 1.6875 29.25 1.6875H2.25C1.9395 1.6875 1.6875 1.9395 1.6875 2.25V20.25C1.6875 20.5611 1.9395 20.8125 2.25 20.8125H6.1875V27C6.1875 27.3111 6.4395 27.5625 6.75 27.5625H24.4491L28.782 34.0622C28.8883 34.2214 29.0655 34.3125 29.25 34.3125C29.3046 34.3125 29.3591 34.3046 29.4131 34.2883C29.6499 34.2163 29.8125 33.9975 29.8125 33.75V27.5625H33.75C34.0605 27.5625 34.3125 27.3111 34.3125 27V9C34.3125 8.6895 34.0605 8.4375 33.75 8.4375ZM2.8125 19.6875V2.8125H28.6875V8.4375H6.75C6.4395 8.4375 6.1875 8.6895 6.1875 9V19.6875H2.8125ZM33.1875 26.4375H29.25C28.9395 26.4375 28.6875 26.6889 28.6875 27V31.8921L25.218 26.6878C25.1134 26.5314 24.9379 26.4375 24.75 26.4375H7.3125V9.5625H33.1875V26.4375Z" fill="#EC2526"/>
<path d="M29.25 12.9375C29.5605 12.9375 29.8125 13.1895 29.8125 13.5C29.8125 13.8105 29.5605 14.0625 29.25 14.0625H11.25C10.9395 14.0625 10.6875 13.8105 10.6875 13.5C10.6875 13.1895 10.9395 12.9375 11.25 12.9375H29.25ZM29.25 17.4375H11.25C10.9395 17.4375 10.6875 17.6895 10.6875 18C10.6875 18.3105 10.9395 18.5625 11.25 18.5625H29.25C29.5605 18.5625 29.8125 18.3105 29.8125 18C29.8125 17.6895 29.5605 17.4375 29.25 17.4375ZM29.25 21.9375H11.25C10.9395 21.9375 10.6875 22.1889 10.6875 22.5C10.6875 22.8111 10.9395 23.0625 11.25 23.0625H29.25C29.5605 23.0625 29.8125 22.8111 29.8125 22.5C29.8125 22.1889 29.5605 21.9375 29.25 21.9375Z" fill="#EC2526"/>
</svg>
